HIERARCHY
ROOT Hips
{
	OFFSET 0.000000 0.000000 0.000000 
	CHANNELS 6 Xposition Yposition Zposition Yrotation Zrotation Xrotation 
	JOINT Lumbar
	{
		OFFSET 0.000000 0.000000 0.000000 
		CHANNELS 3 Zrotation Xrotation Yrotation
		JOINT Neck
		{
			OFFSET 0.000000 0.445665 0.000000 
			CHANNELS 3 Zrotation Xrotation Yrotation
			End Site
			{
				OFFSET 0.000000 0.227535 0.000000 
			}
		}
		JOINT RightShoulder
		{
			OFFSET 0.019635 0.377685 0.194865 
			CHANNELS 3 Zrotation Xrotation Yrotation
			JOINT RightElbow
			{
				OFFSET 0.000000 -0.243375 0.000000 
				CHANNELS 2 Zrotation Yrotation
				JOINT RightWrist
				{
					OFFSET 0.000000 -0.264825 0.000000 
					CHANNELS 2 Zrotation Xrotation
					End Site
					{
						OFFSET 0.006600 -0.176220 0.000990 
					}
				}
			}
		}
		JOINT LeftShoulder
		{
			OFFSET 0.019635 0.377685 -0.194865 
			CHANNELS 3 Zrotation Xrotation Yrotation
			JOINT LeftElbow
			{
				OFFSET 0.000000 -0.243375 0.000000 
				CHANNELS 2 Zrotation Yrotation
				JOINT LeftWrist
				{
					OFFSET 0.000000 -0.264825 0.000000 
					CHANNELS 2 Zrotation Xrotation
					End Site
					{
						OFFSET 0.006600 -0.176220 -0.000990 
					}
				}
			}
		}
	}
	JOINT RightHip
	{
		OFFSET 0.052140 -0.069960 0.075570 
		CHANNELS 3 Zrotation Xrotation Yrotation
		JOINT RightKnee
		{
			OFFSET 0.000000 -0.402270 0.000000 
			CHANNELS 1 Zrotation
			JOINT RightAnkle
			{
				OFFSET 0.000000 -0.404085 0.000000 
				CHANNELS 3 Zrotation Xrotation Yrotation
				End Site
				{
					OFFSET 0.204105 -0.089430 0.008415 
				}
			}
		}
	}
	JOINT LeftHip
	{
		OFFSET 0.052140 -0.069960 -0.075570 
		CHANNELS 3 Zrotation Xrotation Yrotation
		JOINT LeftKnee
		{
			OFFSET 0.000000 -0.402270 0.000000 
			CHANNELS 1 Zrotation
			JOINT LeftAnkle
			{
				OFFSET 0.000000 -0.404085 0.000000 
				CHANNELS 3 Zrotation Xrotation Yrotation
				End Site
				{
					OFFSET 0.204105 -0.089430 -0.008415 
				}
			}
		}
	}
}
MOTION
Frames: 22
Frame Time: 0.02
-1.04398 -0.00893 0.08229 -135.00474 -24.04121 -1.92647 32.00676 1.27481 -7.90151 -9.0555 8.19458 -2.11994 10.35056 -21.83674 -25.11991 132.59412 67.22444 -19.07091 0.34526 1.00836 18.247 30.57863 127.88203 -61.72202 -11.15234 -4.20057 17.55542 7.47577 -15.17726 -7.72938 4.75215 -7.13329 -4.74663 37.82177 17.03542 -0.03627 -36.84136 -8.49271 1.85062 3.21716
-1.03893 -0.00883 0.07747 -134.76976 -24.60802 -1.89533 31.35599 1.45875 -8.00932 -9.27539 8.39129 -2.11994 9.04493 -20.94306 -27.05732 133.74883 75.59584 -21.25993 -1.31379 -0.12312 17.08065 32.31192 129.70741 -61.62848 -10.40257 -1.01594 19.14573 7.26043 -15.4475 -8.82796 3.10847 -6.49047 -4.57312 38.99955 16.77503 -0.8524 -37.11492 -8.47769 1.93626 3.25815
-1.03328 -0.00864 0.07297 -134.55138 -25.55071 -1.79569 31.10361 1.54516 -8.17692 -9.46463 8.60779 -2.11994 8.08724 -20.17053 -28.96617 133.44768 86.91955 -23.06569 -3.41082 -0.90466 16.31068 33.96041 130.56646 -62.81801 -8.64485 3.31383 21.3339 6.877 -15.69918 -10.2952 0.3888 -5.458 -4.30044 40.397 16.36247 -1.66238 -37.15422 -8.40264 2.06207 3.31605
-1.0279 -0.00848 0.06841 -134.33145 -26.31555 -1.72889 30.67398 1.67777 -8.31023 -9.65312 8.81115 -2.11994 7.0154 -19.3869 -30.86437 133.8281 96.54247 -24.97106 -5.22649 -1.79961 15.41443 35.61054 131.84563 -63.36905 -7.40373 6.96559 23.22496 6.5693 -15.96633 -11.56674 -1.74478 -4.63747 -4.08165 41.66885 16.04426 -2.40976 -37.29746 -8.35628 2.16026 3.36162
-1.0225 -0.00836 0.0635 -134.08568 -27.10712 -1.65664 30.21525 1.80698 -8.47187 -9.8973 9.03396 -2.11994 5.77421 -18.41586 -32.86125 134.11958 107.6904 -27.20889 -7.39921 -2.86517 14.29081 37.40833 133.19516 -64.10406 -5.92746 11.28286 25.21795 6.26486 -16.20856 -12.94794 -4.25045 -3.68415 -3.82942 43.04827 15.62069 -3.4321 -37.4489 -8.30533 2.29743 3.42652
-1.01701 -0.00814 0.05941 -133.89858 -27.93138 -1.57896 29.91757 1.91801 -8.58957 -10.02088 9.21978 -2.11994 4.96393 -17.8618 -34.64155 134.2474 116.34006 -28.65607 -8.92958 -3.50083 13.73181 38.87882 134.1662 -64.78703 -4.69657 14.483 27.13939 5.91353 -16.49443 -14.19102 -6.25294 -2.90892 -3.62176 44.25085 15.37719 -3.88815 -37.52574 -8.24925 2.36411 3.45579
-1.0114 -0.00772 0.05733 -133.86096 -28.77811 -1.50104 29.95794 2.00673 -8.56935 -9.81599 9.3036 -2.11994 5.23587 -18.46418 -35.88762 134.33402 117.62419 -28.01608 -8.56791 -3.0329 14.67288 39.49913 134.39905 -64.92341 -4.39211 14.35779 28.75641 5.47373 -16.92907 -14.97263 -6.58064 -2.72636 -3.56243 44.97617 15.70347 -2.68954 -37.48646 -8.19251 2.21476 3.37634
-1.00574 -0.00721 0.05611 -133.88334 -29.64034 -1.42016 30.15047 2.07899 -8.50381 -9.49249 9.34818 -2.11994 5.93058 -19.47551 -36.90657 134.29303 116.25767 -26.58982 -7.54641 -2.14776 16.16137 39.78831 134.26917 -64.98573 -4.36518 13.0655 30.27387 4.99255 -17.40269 -15.60212 -6.37396 -2.73362 -3.55073 45.50349 16.20985 -0.93754 -37.37338 -8.13267 1.9952 3.26156
-1.00014 -0.00674 0.05462 -133.88381 -30.48123 -1.34159 30.28059 2.15575 -8.46003 -9.22571 9.40751 -2.11994 6.44451 -20.27863 -37.99374 134.28189 115.92483 -25.52071 -6.83124 -1.45834 17.37553 40.20932 134.26725 -65.1462 -4.21084 12.27735 31.8135 4.53027 -17.84356 -16.29605 -6.43162 -2.64818 -3.51598 46.08182 16.61109 0.5017 -37.27553 -8.07486 1.81528 3.16699
-0.99435 -0.00628 0.05264 -133.86239 -31.39825 -1.25637 30.39432 2.24247 -8.4118 -8.9446 9.48138 -2.11994 6.92496 -21.18352 -39.22942 134.3569 116.37017 -24.44302 -6.09933 -0.73113 18.71354 40.70647 134.40534 -65.07827 -4.03582 11.6249 33.47484 4.06154 -18.35053 -17.02237 -6.43574 -2.57596 -3.4835 46.838 17.10577 2.20016 -37.2531 -8.01246 1.60409 3.05549
-0.98895 -0.00577 0.05189 -133.90044 -32.15205 -1.18544 30.5752 2.30494 -8.36331 -8.66718 9.51435 -2.11994 7.56848 -21.96794 -40.09992 134.21823 114.58472 -23.19673 -5.24599 0.0126 19.91568 40.96686 134.15534 -65.4521 -3.97177 10.41656 34.84678 3.59882 -18.72525 -17.64046 -6.41023 -2.52704 -3.4592 47.16664 17.45004 3.4895 -37.05111 -7.95952 1.4409 2.97061
-0.98459 -0.00511 0.0542 -134.08891 -32.47883 -1.15281 30.88542 2.31189 -8.30779 -8.41657 9.45262 -2.11994 8.5803 -22.35734 -40.03724 133.7237 106.76974 -21.71922 -4.16277 0.69312 20.6327 40.65949 133.12628 -67.05526 -4.24718 7.78925 35.47935 3.16125 -18.76074 -17.99468 -6.43278 -2.49129 -3.44348 46.42477 17.34014 3.52126 -36.44191 -7.93495 1.42633 2.96799
-0.98064 -0.00439 0.05776 -134.3346 -32.63351 -1.13528 31.25931 2.29399 -8.25652 -8.17678 9.34939 -2.11994 9.73757 -22.60603 -39.61134 132.98775 96.87925 -20.09411 -2.98786 1.3769 21.18911 40.12387 131.68782 -69.09877 -4.61203 4.66717 35.8144 2.73195 -18.65588 -18.24413 -6.43882 -2.47524 -3.43527 45.24743 17.07225 3.12274 -35.6432 -7.92003 1.46236 2.99321
-0.97653 -0.00371 0.06085 -134.55385 -32.84747 -1.11254 31.61468 2.28323 -8.21439 -7.9397 9.25936 -2.11994 10.81014 -22.89094 -39.33909 132.23695 88.26873 -18.5098 -1.89006 2.05976 21.79948 39.69109 130.30579 -70.9426 -4.87332 1.8789 36.25955 2.30114 -18.59123 -18.54076 -6.44768 -2.45518 -3.42566 44.22728 16.87433 2.9138 -34.8854 -7.90002 1.47587 3.00559
-0.97231 -0.00299 0.06352 -134.77834 -33.1434 -1.08299 31.93249 2.28985 -8.12392 -7.66413 9.19175 -2.11994 11.96904 -23.29788 -39.10731 132.00768 78.1618 -17.00507 -0.62193 2.74847 22.50353 39.25424 129.45039 -72.79127 -5.4045 -1.4032 36.80803 1.86063 -18.6248 -18.83282 -6.45834 -2.42063 -3.40917 43.36997 16.69119 2.74132 -34.3132 -7.88286 1.48543 3.01775
-0.9684 -0.00233 0.06737 -135.00307 -33.22589 -1.07085 32.34057 2.25403 -8.13579 -7.4755 9.06821 -2.11994 12.98609 -23.42363 -38.7077 130.63539 70.69307 -15.31444 0.30722 3.42853 22.97468 38.77126 127.41491 -74.72463 -5.39726 -3.76687 37.07137 1.44115 -18.42326 -19.11312 -6.46814 -2.4185 -3.40815 42.07547 16.43632 2.39355 -33.31364 -7.86206 1.51556 3.03719
-0.9654 -0.00188 0.07411 -135.22904 -32.77495 -1.10692 32.98932 2.11255 -8.42804 -7.50194 8.80004 -2.11994 13.49435 -22.70374 -37.93565 126.18866 71.19831 -13.11246 0.25286 4.00919 22.77289 38.25892 122.1534 -76.8738 -3.83065 -3.40242 36.62595 1.09258 -17.57869 -19.37368 -6.48071 -2.50082 -3.44806 39.65972 16.03105 1.57682 -31.15709 -7.82921 1.59541 3.07217
-0.96267 -0.0015 0.082 -135.45066 -32.11328 -1.15934 33.72412 1.92865 -8.82297 -7.61995 8.47761 -2.11994 13.8664 -21.72241 -37.00752 120.60396 74.4098 -10.73976 -0.14457 4.59172 22.35165 37.702 115.73952 -79.07667 -1.72791 -2.10383 35.90498 0.76222 -16.50778 -19.63006 -6.4953 -2.61411 -3.50297 36.82651 15.55662 0.61159 -28.58465 -7.79224 1.6936 3.11329
-0.95973 -0.00106 0.0894 -135.6639 -31.53779 -1.20173 34.41474 1.76023 -9.17263 -7.71173 8.17996 -2.11994 14.35395 -20.9274 -36.15123 115.51661 76.27609 -8.47051 -0.37158 5.22163 22.07434 37.13928 109.89113 -81.19615 0.09818 -1.27402 35.30451 0.41419 -15.5583 -19.89636 -6.51089 -2.71262 -3.55083 34.19542 15.10687 -0.22807 -26.21458 -7.75706 1.78027 3.15031
-0.95717 -0.00069 0.09672 -135.92124 -30.9933 -1.25542 35.1311 1.6055 -9.51897 -7.74025 7.87887 -2.11994 14.62663 -19.8452 -35.28025 110.47363 78.55363 -6.08274 -0.65556 5.65287 21.60815 36.6777 103.82479 -83.57929 2.06285 -0.27649 34.70617 0.10664 -14.52405 -20.12128 -6.51769 -2.81538 -3.60023 31.48555 14.67965 -1.32358 -23.76943 -7.72292 1.88204 3.19379
-0.95386 -0.00021 0.10444 -136.08702 -30.34082 -1.2895 35.81092 1.41437 -9.8935 -7.92042 7.57446 -2.11994 15.30497 -19.29779 -34.40508 105.10972 80.6466 -3.90791 -0.90447 6.49255 21.48155 35.99875 97.97799 -85.42117 3.8642 0.6015 34.05109 -0.28168 -13.61631 -20.43752 -6.54328 -2.91577 -3.64957 28.86027 14.19186 -1.92096 -21.3994 -7.68508 1.95616 3.22492
-0.94863 0.00071 0.11317 -135.98268 -29.40568 -1.26348 36.38914 1.11728 -10.34721 -8.51054 7.25852 -2.11994 17.20231 -20.31791 -33.5809 98.80619 81.56578 -2.32571 -0.96684 8.51063 22.3805 34.72444 92.72727 -85.74531 5.11138 0.91346 33.23153 -0.89091 -13.09698 -20.96999 -6.6234 -3.00682 -3.69754 26.45743 13.54886 -1.06104 -19.21462 -7.64182 1.94839 3.22021
